<svg width="19" height="18" viewBox="0 0 19 18" fill="none" xmlns="http://www.w3.org/2000/svg">
<path d="M7.83329 16.14C4.97579 17.1042 2.59496 16.14 1.16663 13.1667" stroke="white" stroke-width="1.25" stroke-linecap="round" stroke-linejoin="round"/>
<path d="M7.83329 17.3333V14.6317C7.83329 14.1333 7.98663 13.7 8.23329 13.3083C8.40329 13.04 8.28663 12.6583 7.98079 12.575C5.44496 11.8767 3.66663 10.7558 3.66663 7.0375C3.66663 6.07083 3.98329 5.1625 4.53996 4.37083C4.67829 4.17417 4.74829 4.07583 4.76496 3.9875C4.78163 3.8975 4.75246 3.78167 4.69413 3.54833C4.45829 2.60167 4.47413 1.59583 4.82746 0.69C4.82746 0.69 5.55829 0.450833 7.22246 1.49C7.60246 1.7275 7.79246 1.84667 7.95996 1.87333C8.12746 1.9 8.35079 1.84417 8.79746 1.7325C9.4361 1.57416 10.092 1.49606 10.75 1.5C11.4079 1.49719 12.0637 1.57556 12.7025 1.73333C13.1491 1.845 13.3733 1.9 13.5408 1.87417C13.7075 1.8475 13.8975 1.72833 14.2775 1.49083C15.9416 0.451667 16.6725 0.690833 16.6725 0.690833C17.0258 1.59667 17.0416 2.6025 16.8058 3.54917C16.7475 3.7825 16.7191 3.89917 16.7358 3.9875C16.7525 4.07583 16.8216 4.175 16.96 4.37167C17.5166 5.16333 17.8333 6.07167 17.8333 7.03833C17.8333 10.7567 16.055 11.8775 13.5191 12.5742C13.2133 12.6583 13.0966 13.04 13.2666 13.3075C13.5133 13.6992 13.6666 14.1325 13.6666 14.6317V17.3333" stroke="white" stroke-width="1.25" stroke-linecap="round" stroke-linejoin="round"/>
</svg>
