<svg width="25" height="26" viewBox="0 0 25 26" fill="none" xmlns="http://www.w3.org/2000/svg">
<path d="M10.4166 13C9.27081 13 8.28991 12.592 7.47394 11.7761C6.65797 10.9601 6.24998 9.97919 6.24998 8.83335C6.24998 7.68752 6.65797 6.70662 7.47394 5.89065C8.28991 5.07467 9.27081 4.66669 10.4166 4.66669C11.5625 4.66669 12.5434 5.07467 13.3594 5.89065C14.1753 6.70662 14.5833 7.68752 14.5833 8.83335C14.5833 9.97919 14.1753 10.9601 13.3594 11.7761C12.5434 12.592 11.5625 13 10.4166 13ZM2.08331 21.3334V18.4167C2.08331 17.8438 2.23088 17.3056 2.52602 16.8021C2.82116 16.2986 3.22915 15.9167 3.74998 15.6563C4.6354 15.2049 5.63366 14.8229 6.74477 14.5104C7.85588 14.1979 9.07984 14.0417 10.4166 14.0417H10.7812C10.8854 14.0417 10.9896 14.059 11.0937 14.0938C10.9548 14.4063 10.8378 14.732 10.7427 15.0709C10.6475 15.4097 10.5736 15.7611 10.5208 16.125H10.4166C9.18401 16.125 8.07741 16.2813 7.09685 16.5938C6.1163 16.9063 5.31317 17.2188 4.68748 17.5313C4.53123 17.6181 4.40519 17.7396 4.30935 17.8959C4.21352 18.0521 4.16595 18.2257 4.16665 18.4167V19.25H10.7291C10.8333 19.6146 10.9722 19.975 11.1458 20.3313C11.3194 20.6875 11.5104 21.0215 11.7187 21.3334H2.08331ZM16.6666 22.375L16.3541 20.8125C16.1458 20.7257 15.9507 20.6347 15.7687 20.5396C15.5868 20.4445 15.4 20.3271 15.2083 20.1875L13.6979 20.6563L12.6562 18.8854L13.8541 17.8438C13.8194 17.6007 13.8021 17.375 13.8021 17.1667C13.8021 16.9584 13.8194 16.7327 13.8541 16.4896L12.6562 15.4479L13.6979 13.6771L15.2083 14.1459C15.3993 14.007 15.5861 13.89 15.7687 13.7948C15.9514 13.6997 16.1465 13.6084 16.3541 13.5209L16.6666 11.9584H18.75L19.0625 13.5209C19.2708 13.6077 19.4663 13.7031 19.6489 13.8073C19.8316 13.9115 20.018 14.0417 20.2083 14.1979L21.7187 13.6771L22.7604 15.5L21.5625 16.5417C21.5972 16.75 21.6146 16.967 21.6146 17.1927C21.6146 17.4184 21.5972 17.6354 21.5625 17.8438L22.7604 18.8854L21.7187 20.6563L20.2083 20.1875C20.0173 20.3264 19.8309 20.4438 19.6489 20.5396C19.467 20.6354 19.2715 20.7264 19.0625 20.8125L18.75 22.375H16.6666ZM17.7083 19.25C18.2812 19.25 18.7719 19.0462 19.1802 18.6386C19.5885 18.2309 19.7923 17.7403 19.7916 17.1667C19.791 16.5931 19.5871 16.1028 19.1802 15.6959C18.7732 15.2889 18.2826 15.0847 17.7083 15.0834C17.134 15.082 16.6437 15.2861 16.2375 15.6959C15.8312 16.1056 15.6271 16.5959 15.625 17.1667C15.6229 17.7375 15.8271 18.2281 16.2375 18.6386C16.6479 19.049 17.1382 19.2528 17.7083 19.25ZM10.4166 10.9167C10.9896 10.9167 11.4802 10.7129 11.8885 10.3052C12.2969 9.89759 12.5007 9.40696 12.5 8.83335C12.4993 8.25974 12.2955 7.76946 11.8885 7.36252C11.4816 6.95558 10.991 6.75141 10.4166 6.75002C9.84234 6.74863 9.35206 6.9528 8.94581 7.36252C8.53956 7.77224 8.3354 8.26252 8.33331 8.83335C8.33123 9.40419 8.5354 9.89481 8.94581 10.3052C9.35623 10.7156 9.84651 10.9195 10.4166 10.9167Z" fill="#2EE2E5"/>
</svg>
